<svg xmlns="http://www.w3.org/2000/svg" xmlns:xlink="http://www.w3.org/1999/xlink" width="227" height="227" viewBox="0 0 227 227">
    <defs>
        <path id="a" d="M74.972 150C33.73 150 .297 116.565.297 75.32.297 34.078 33.73.644 74.972.644s74.677 33.434 74.677 74.678S116.214 150 74.972 150"/>
        <filter id="b" width="187%" height="187%" x="-43.5%" y="-36.8%" filterUnits="objectBoundingBox">
            <feOffset dy="10" in="SourceAlpha" result="shadowOffsetOuter1"/>
            <feGaussianBlur in="shadowOffsetOuter1" result="shadowBlurOuter1" stdDeviation="20"/>
            <feColorMatrix in="shadowBlurOuter1" values="0 0 0 0 0.149019608 0 0 0 0 0.235294118 0 0 0 0 0.458823529 0 0 0 0.15 0"/>
        </filter>
    </defs>
    <g fill="none" fill-rule="evenodd" transform="translate(38 28)">
        <mask id="c" fill="#fff">
            <use xlink:href="#a"/>
        </mask>
        <use fill="#000" filter="url(#b)" xlink:href="#a"/>
        <use fill="#D6E7F8" xlink:href="#a"/>
        <g mask="url(#c)">
            <path fill="#B0BFDE" d="M22.682 73.038a.812.812 0 0 1-.259-.042.85.85 0 0 1-.532-1.067l11.67-36.307a.833.833 0 0 1 .79-.583c.36 0 .678.235.79.583l11.667 36.307a.85.85 0 0 1-.531 1.067.827.827 0 0 1-1.05-.541L34.352 38.606l-10.88 33.849a.834.834 0 0 1-.79.583"/>
            <path fill="#B0BFDE" d="M26.045 73.039h-5.39c-.445 0-.805-.448-.805-1s.36-1 .805-1h5.39c.444 0 .805.448.805 1s-.36 1-.805 1M49.045 73.039h-5.39c-.445 0-.805-.448-.805-1s.36-1 .805-1h5.39c.444 0 .805.448.805 1s-.36 1-.805 1M41.997 62.039H26.702c-.47 0-.852-.448-.852-1s.381-1 .852-1h15.295c.471 0 .853.448.853 1s-.382 1-.853 1M57.165 45.033c-.874.262-1.963.535-3.292.83-2.089.455-3.251.723-3.889.894-.611.167-1.201.493-1.748.967-.476.399-.701.96-.701 1.722 0 .824.287 1.479.905 2.062.61.58 1.416.86 2.464.86 1.216 0 2.295-.26 3.3-.793.984-.52 1.707-1.184 2.15-1.976.526-.906.797-2.439.81-4.566m-6.26 9.006c-1.483 0-2.703-.445-3.627-1.322-.946-.894-1.427-1.995-1.427-3.27 0-1.266.433-2.271 1.288-2.99.73-.632 1.54-1.076 2.402-1.312.678-.181 1.827-.446 3.969-.914 1.904-.42 3.278-.793 4.201-1.14a.852.852 0 0 1 .776.095.835.835 0 0 1 .364.688v.985c0 2.55-.337 4.37-1.03 5.563-.597 1.066-1.549 1.954-2.823 2.627-1.237.656-2.614.99-4.093.99"/>
            <path fill="#B0BFDE" d="M57.027 54.039a.836.836 0 0 1-.822-.849V42.12c0-2.418-1.784-4.385-3.978-4.385h-1.132c-1.595 0-3.031 1.045-3.66 2.663a.815.815 0 0 1-1.068.473.857.857 0 0 1-.458-1.103c.88-2.266 2.915-3.73 5.186-3.73h1.132c3.1 0 5.623 2.729 5.623 6.082v11.07a.836.836 0 0 1-.823.849M97.564 119.039a1.715 1.715 0 0 1-1.714-1.715v-20.57c0-.947.768-1.715 1.714-1.715h20.571a1.715 1.715 0 0 1 0 3.429H99.28v18.856c0 .947-.768 1.715-1.715 1.715"/>
            <path fill="#B0BFDE" d="M64.254 115.647H97.02l19.425-19.35V49.428h-52.19v66.218zm33.47 3.392H62.553a1.7 1.7 0 0 1-1.702-1.696V47.734c0-.936.762-1.695 1.702-1.695h55.595c.94 0 1.703.759 1.703 1.695v49.264c0 .45-.18.881-.499 1.199L98.928 118.54c-.32.319-.751.498-1.203.498z"/>
            <path fill="#B0BFDE" d="M93.177 62.039H73.522c-.923 0-1.672-.672-1.672-1.5 0-.829.75-1.5 1.672-1.5h19.655c.923 0 1.673.671 1.673 1.5 0 .828-.75 1.5-1.673 1.5M107.129 70.039H73.57c-.95 0-1.721-.672-1.721-1.5 0-.829.77-1.5 1.721-1.5h33.558c.95 0 1.72.671 1.72 1.5 0 .828-.77 1.5-1.72 1.5M107.129 78.039H73.57c-.95 0-1.721-.672-1.721-1.5 0-.829.77-1.5 1.721-1.5h33.558c.95 0 1.72.671 1.72 1.5 0 .828-.77 1.5-1.72 1.5M87.177 86.039H73.522c-.923 0-1.672-.672-1.672-1.5 0-.829.749-1.5 1.672-1.5h13.655c.924 0 1.673.671 1.673 1.5 0 .828-.75 1.5-1.673 1.5"/>
            <path fill="#FFF" d="M47.85 84.039h13.698c2.928 0 5.302-2.279 5.302-5.092V77.25c0-.07-.008-.14-.012-.211H55.139l-7.29 7z"/>
            <path fill="#FFF" d="M49.308 89.039l9.028-8.982a5.308 5.308 0 0 0 1.514-3.018h-8.938l-12.062 12h10.458z"/>
            <path fill="#263C75" d="M78.853 81.039a24.947 24.947 0 0 1-24.279-19.06c-1.585-6.476-.55-13.188 2.917-18.901 3.465-5.714 8.939-9.734 15.412-11.319 1.95-.478 3.952-.72 5.947-.72a24.938 24.938 0 0 1 24.274 19.05c1.587 6.477.552 13.19-2.914 18.907-3.466 5.715-8.94 9.736-15.415 11.322a25.03 25.03 0 0 1-5.942.72"/>
            <path fill="#10265F" d="M78.853 81.039a24.947 24.947 0 0 1-24.279-19.06c-1.585-6.476-.55-13.188 2.917-18.901 3.465-5.714 8.939-9.734 15.412-11.319 1.95-.478 3.952-.72 5.947-.72a24.938 24.938 0 0 1 24.274 19.05c1.587 6.477.552 13.19-2.914 18.907-3.466 5.715-8.94 9.736-15.415 11.322a25.03 25.03 0 0 1-5.942.72"/>
            <path fill="#263C75" d="M40.99 120.039a3.113 3.113 0 0 1-1.626-.46 3.174 3.174 0 0 1-1.058-4.344L64.02 72.562a3.13 3.13 0 0 1 4.317-1.064 3.174 3.174 0 0 1 1.056 4.346L43.68 118.515a3.136 3.136 0 0 1-2.69 1.524"/>
            <path fill="#263C75" d="M41.236 123.039a6.408 6.408 0 0 1-3.31-.919c-3.017-1.811-3.98-5.7-2.148-8.687l19.216-31.349c1.83-2.987 5.761-3.94 8.78-2.127 3.016 1.812 3.979 5.701 2.148 8.686l-19.216 31.35a6.404 6.404 0 0 1-5.47 3.046"/>
            <path fill="#263C75" d="M78.084 81.008c1.975 0 3.955-.241 5.887-.716 6.415-1.579 11.839-5.578 15.273-11.264 3.434-5.686 4.459-12.366 2.887-18.81a24.808 24.808 0 0 0-10.921-15.18c-.332.45-.647.915-.94 1.402l-52.42 86.79a6.275 6.275 0 0 0 3.057.809c2.14 0 4.23-1.091 5.42-3.064l19.047-31.536a6.374 6.374 0 0 0 .135-6.356l2.536-4.2a24.677 24.677 0 0 0 10.04 2.125"/>
            <path fill="#FFF" d="M79.85 99.539c0 1.932-1.626 3.5-3.632 3.5H49.48c-2.004.001-3.631-1.568-3.631-3.5 0-1.933 1.627-3.5 3.631-3.5h26.737c2.006 0 3.632 1.567 3.632 3.5"/>
            <path fill="#FFF" d="M46.504 87.039c-5.332 0-9.655 4.322-9.654 9.654v15.69c-.001 5.333 4.322 9.656 9.654 9.656h15.69c5.332 0 9.656-4.323 9.656-9.656v-15.69c0-5.334-4.323-9.654-9.656-9.654h-15.69z"/>
            <path fill="#FFF" d="M73.85 117.539c0 1.933-1.667 3.5-3.722 3.5H52.573c-2.055 0-3.723-1.567-3.723-3.5 0-1.934 1.668-3.5 3.723-3.5h17.555c2.055 0 3.722 1.566 3.722 3.5M76.85 108.538c0 1.932-1.626 3.5-3.631 3.5H46.48c-2.004 0-3.631-1.568-3.631-3.5 0-1.933 1.627-3.5 3.631-3.5H73.22c2.005 0 3.63 1.567 3.63 3.5M80.85 90.538c0 1.934-1.634 3.5-3.648 3.5H61.498c-2.014 0-3.648-1.566-3.648-3.5 0-1.931 1.634-3.5 3.648-3.5h15.704c2.014 0 3.648 1.569 3.648 3.5"/>
            <path fill="#FFF" d="M13.85 117.039h35.487c3.598 0 6.513-2.841 6.513-6.346v-10.31c0-3.503-2.915-6.344-6.513-6.344H13.85v23z"/>
            <path fill="#10265F" d="M13.85 124.039h16v-32h-16z"/>
            <path fill="#FF8C2C" d="M6.85 125.039h20v-34h-30z"/>
            <path fill="#DE3F18" d="M23.85 125.039h3v-34h-3z"/>
            <path fill="#263C75" d="M26.85 124.039h3v-16h-3z"/>
            <path fill="#DC3F18" d="M-.15 125.039h24v-17h-24z"/>
            <path fill="#DE3F18" d="M26.85 108.039h-3v17h3v-1.192z"/>
            <path fill="#10265F" d="M19.35 121.039a1.5 1.5 0 1 1 0-3 1.5 1.5 0 0 1 0 3"/>
            <path fill="#FFF" d="M78.35 37.039c-1.475 0-2.956.18-4.402.534-4.788 1.172-8.837 4.147-11.403 8.375-2.565 4.23-3.332 9.196-2.16 13.984a18.461 18.461 0 0 0 17.968 14.107c1.473 0 2.951-.18 4.396-.533 4.79-1.173 8.84-4.15 11.405-8.38 2.566-4.232 3.333-9.2 2.16-13.99A18.455 18.455 0 0 0 78.35 37.038"/>
            <path fill="#D6E7F8" d="M62.822 61.428c-1.156-4.734-.4-9.645 2.127-13.827 2.527-4.182 6.517-7.123 11.233-8.282a18.129 18.129 0 0 1 13.668 2.058 18.13 18.13 0 0 0-16.112-3.811c-4.717 1.159-8.705 4.1-11.233 8.283a18.214 18.214 0 0 0-2.127 13.826 18.249 18.249 0 0 0 8.37 11.364 18.27 18.27 0 0 1-5.926-9.61"/>
        </g>
    </g>
</svg>
