<svg xmlns="http://www.w3.org/2000/svg" xmlns:xlink="http://www.w3.org/1999/xlink" width="228" height="228" viewBox="0 0 228 228">
    <defs>
        <path id="b" d="M74.997 150C33.577 150 0 116.42 0 75 0 33.578 33.577 0 74.997 0c41.421 0 75 33.578 75 75 0 41.42-33.579 75-75 75"/>
        <filter id="a" width="186.7%" height="186.7%" x="-43.3%" y="-36.7%" filterUnits="objectBoundingBox">
            <feOffset dy="10" in="SourceAlpha" result="shadowOffsetOuter1"/>
            <feGaussianBlur in="shadowOffsetOuter1" result="shadowBlurOuter1" stdDeviation="20"/>
            <feColorMatrix in="shadowBlurOuter1" values="0 0 0 0 0.149019608 0 0 0 0 0.235294118 0 0 0 0 0.458823529 0 0 0 0.15 0"/>
        </filter>
    </defs>
    <g fill="none" fill-rule="evenodd">
        <g transform="translate(39 29)">
            <use fill="#000" filter="url(#a)" xlink:href="#b"/>
            <use fill="#D6E7F8" xlink:href="#b"/>
        </g>
        <path fill="#263C75" d="M99.191 87.288c-16.444 0-29.773 10.505-29.773 23.463 0 9.367 6.985 17.425 17.043 21.189-.197.406-.375.824-.603 1.216-1.968 3.302-4.848 5.802-8.278 7.484 7.6.541 14.63-1.732 19.271-6.52.773.047 1.55.095 2.34.095 16.437 0 29.76-10.507 29.76-23.464 0-12.958-13.323-23.463-29.76-23.463"/>
        <path fill="#10265F" d="M119.679 127.76c-18.405-.408-33.17-12.29-33.17-26.899 0-4.53 1.427-8.796 3.936-12.541a37.2 37.2 0 0 1 8.747-1.032c16.436 0 29.76 10.505 29.76 23.463 0 6.697-3.565 12.733-9.273 17.01"/>
        <path fill="#FFF" d="M124.598 68.027c18.863 0 34.157 12.052 34.157 26.919 0 10.745-8.014 19.99-19.552 24.307.226.466.428.945.69 1.397 2.258 3.786 5.565 6.655 9.497 8.584-8.717.622-16.784-1.988-22.107-7.479-.887.054-1.78.109-2.685.109-18.858 0-34.142-12.053-34.142-26.918 0-14.867 15.284-26.92 34.142-26.92"/>
        <path fill="#FFF" d="M158.751 95.034c-.045 10.708-8.042 19.913-19.548 24.22.226.465.428.944.69 1.396 2.259 3.786 5.564 6.655 9.497 8.584-8.717.621-16.784-1.989-22.107-7.48-.887.055-1.78.11-2.685.11-18.82 0-34.078-12.006-34.14-26.83h68.293z"/>
        <path fill="#DE3F18" d="M134.404 95.438a4.796 4.796 0 0 0 4.8 4.794 4.796 4.796 0 0 0 0-9.591 4.797 4.797 0 0 0-4.8 4.797M119.702 95.438a4.798 4.798 0 0 0 4.8 4.794c2.64 0 4.787-2.15 4.787-4.794 0-2.647-2.147-4.797-4.786-4.797a4.799 4.799 0 0 0-4.801 4.797M105.004 95.438a4.795 4.795 0 0 0 4.796 4.794 4.797 4.797 0 0 0 0-9.591 4.796 4.796 0 0 0-4.796 4.797"/>
        <path fill="#FF8C2C" d="M143.949 95.034h-9.504c.207-2.455 2.243-4.393 4.758-4.393 2.503 0 4.537 1.938 4.746 4.393M129.247 95.034h-9.505c.21-2.455 2.246-4.393 4.76-4.393 2.504 0 4.537 1.938 4.745 4.393M114.548 95.034h-9.505c.208-2.455 2.244-4.393 4.757-4.393 2.504 0 4.54 1.938 4.748 4.393"/>
    </g>
</svg>
