<svg xmlns="http://www.w3.org/2000/svg" xmlns:xlink="http://www.w3.org/1999/xlink" width="226" height="227" viewBox="0 0 226 227">
    <defs>
        <path id="b" d="M0 74.67C0 33.437 33.429.013 74.662.013c41.235 0 74.663 33.424 74.663 74.657 0 41.232-33.428 74.657-74.663 74.657C33.43 149.327 0 115.902 0 74.67z"/>
        <filter id="a" width="187.1%" height="187.1%" x="-43.5%" y="-36.8%" filterUnits="objectBoundingBox">
            <feOffset dy="10" in="SourceAlpha" result="shadowOffsetOuter1"/>
            <feGaussianBlur in="shadowOffsetOuter1" result="shadowBlurOuter1" stdDeviation="20"/>
            <feColorMatrix in="shadowBlurOuter1" values="0 0 0 0 0.149019608 0 0 0 0 0.235294118 0 0 0 0 0.458823529 0 0 0 0.15 0"/>
        </filter>
    </defs>
    <g fill="none" fill-rule="evenodd">
        <g transform="translate(38 29)">
            <use fill="#000" filter="url(#a)" xlink:href="#b"/>
            <use fill="#D6E7F8" xlink:href="#b"/>
        </g>
        <path fill="#10265F" d="M156.477 102.366c0 24.1-19.54 43.639-43.645 43.639-24.104 0-43.644-19.539-43.644-43.64 0-24.103 19.54-43.64 43.644-43.64 24.106 0 43.645 19.537 43.645 43.64"/>
        <path fill="#FFF" d="M145.105 102.366c0 17.82-14.449 32.267-32.272 32.267-17.825 0-32.273-14.447-32.273-32.267 0-17.822 14.448-32.27 32.273-32.27 17.823 0 32.272 14.448 32.272 32.27"/>
        <path fill="#10265F" d="M133.732 102.366c0 11.542-9.357 20.896-20.9 20.896s-20.898-9.354-20.898-20.896c0-11.542 9.355-20.898 20.899-20.898 11.542 0 20.899 9.356 20.899 20.898"/>
        <path fill="#FFF" d="M122.36 102.366c0 5.259-4.267 9.522-9.527 9.522-5.262 0-9.527-4.263-9.527-9.522 0-5.26 4.265-9.526 9.527-9.526 5.26 0 9.526 4.265 9.526 9.526"/>
        <path fill="#263C75" d="M112.833 58.725v11.372c17.823 0 32.272 14.447 32.272 32.27 0 17.818-14.449 32.266-32.272 32.266v11.371c24.104 0 43.645-19.537 43.645-43.638 0-24.105-19.54-43.64-43.645-43.64"/>
        <path fill="#FFF" d="M112.833 92.84c5.26 0 9.526 4.265 9.526 9.525 0 5.26-4.266 9.524-9.526 9.524"/>
        <path fill="#263C75" d="M112.833 81.468V92.84c5.26 0 9.526 4.265 9.526 9.526 0 5.26-4.266 9.523-9.526 9.523v11.373c11.542 0 20.898-9.354 20.898-20.896 0-11.542-9.356-20.898-20.898-20.898"/>
        <path fill="#FFF" d="M122.36 102.366c0-5.26-4.267-9.526-9.527-9.526v19.048c5.26 0 9.526-4.263 9.526-9.522"/>
        <path fill="#FFF" d="M112.833 70.097v11.371c11.542 0 20.898 9.356 20.898 20.898 0 11.54-9.356 20.896-20.898 20.896v11.371c17.823 0 32.272-14.447 32.272-32.267 0-17.822-14.449-32.27-32.272-32.27"/>
        <path fill="#DE3F18" d="M113.223 102.568l2.148-8.02 2.151-8.019 3.92 7.82 7.823 3.92-8.021 2.15zM149.289 56.714l-6.857 6.857 2.068 7.721 7.723 2.07 6.855-6.858-7.72-2.068z"/>
        <path fill="#DE3F18" d="M149.278 64.665l1.848 1.85-29.995 29.992-1.848-1.848z"/>
        <path fill="#FF8C2C" d="M151.358 64.436l-2.07-7.721-6.856 6.855 1.679 6.263-23.289 23.286-3.3-6.59-2.15 8.019-2.15 8.02z"/>
    </g>
</svg>
