<svg xmlns="http://www.w3.org/2000/svg" xmlns:xlink="http://www.w3.org/1999/xlink" width="134" height="134" viewBox="0 0 134 134">
    <defs>
        <path id="b" d="M135 175c-33.137 0-60-26.863-60-60s26.863-60 60-60 60 26.863 60 60-26.863 60-60 60zm-32.15-61.522a4.565 4.565 0 0 0-4.294-3.043 4.566 4.566 0 0 0 0 9.13 4.565 4.565 0 0 0 4.295-3.043h9.371v-3.044h-9.371zm33.669 27.652v-3.304h-3.038v3.304A4.566 4.566 0 0 0 135 150a4.566 4.566 0 0 0 1.519-8.87zm22.777-4.565a4.566 4.566 0 0 0 1.519 8.87 4.566 4.566 0 0 0 1.518-8.87v-9.391h-9.11v3.043h6.073v6.348zm-51.63 0a4.566 4.566 0 0 0 1.519 8.87 4.566 4.566 0 0 0 1.519-8.87v-6.348h6.074v-3.043h-9.111v9.391zM136.52 88.87A4.566 4.566 0 0 0 135 80a4.566 4.566 0 0 0-1.519 8.87v3.304h3.038V88.87zm30.63 24.608h-9.371v3.044h9.371a4.565 4.565 0 0 0 4.295 3.043 4.566 4.566 0 0 0 0-9.13 4.565 4.565 0 0 0-4.295 3.043zm-4.816-20.043a4.566 4.566 0 0 0-1.519-8.87 4.566 4.566 0 0 0-1.518 8.87v6.348h-6.074v3.043h9.111v-9.391zm-54.666 0v9.391h9.11v-3.043h-6.073v-6.348a4.566 4.566 0 0 0-1.519-8.87 4.566 4.566 0 0 0-1.518 8.87zM135 134.783c10.885 0 19.74-8.875 19.74-19.783 0-10.908-8.855-19.783-19.74-19.783-10.885 0-19.74 8.875-19.74 19.783 0 10.908 8.855 19.783 19.74 19.783zm-1.519-9.13c-3.35 0-6.074-2.73-6.074-6.088v-.651h3.037v.651a3.043 3.043 0 0 0 3.037 3.044h3.038a3.043 3.043 0 0 0 0-6.087h-3.038c-3.35 0-6.074-2.73-6.074-6.087 0-3.357 2.725-6.087 6.074-6.087v-3.044h3.038v3.044c3.35 0 6.074 2.73 6.074 6.087v.651h-3.037v-.651a3.043 3.043 0 0 0-3.037-3.044h-3.038a3.043 3.043 0 0 0 0 6.087h3.038c3.35 0 6.074 2.73 6.074 6.087 0 3.357-2.725 6.087-6.074 6.087v3.044h-3.038v-3.044z"/>
        <filter id="a" y="-7.5%" filterUnits="objectBoundingBox">
            <feOffset dy="3" in="SourceAlpha" result="shadowOffsetOuter1"/>
            <feGaussianBlur in="shadowOffsetOuter1" result="shadowBlurOuter1" stdDeviation="3.5"/>
            <feColorMatrix in="shadowBlurOuter1" values="0 0 0 0 0.870588235 0 0 0 0 0.247058824 0 0 0 0 0.0941176471 0 0 0 0.25 0"/>
        </filter>
    </defs>
    <g fill="none" fill-rule="nonzero" transform="translate(-68 -51)">
        <use fill="#000" filter="url(#a)" xlink:href="#b"/>
        <use fill="#DE3F18" xlink:href="#b"/>
    </g>
</svg>
