<svg xmlns="http://www.w3.org/2000/svg" xmlns:xlink="http://www.w3.org/1999/xlink" width="134" height="134" viewBox="0 0 134 134">
    <defs>
        <path id="b" d="M135 175c-33.137 0-60-26.863-60-60s26.863-60 60-60 60 26.863 60 60-26.863 60-60 60zm26.235-70.757h-15.479V88.765c0-.975-.789-1.765-1.765-1.765h-17.982c-.975 0-1.765.79-1.765 1.765v15.478h-15.479c-.975 0-1.765.79-1.765 1.765v17.982c0 .975.79 1.765 1.765 1.765h15.479v15.48c0 .976.79 1.765 1.765 1.765h17.982c.976 0 1.765-.789 1.765-1.765v-15.48h15.479c.976 0 1.765-.79 1.765-1.765v-17.982c0-.974-.789-1.765-1.765-1.765z"/>
        <filter id="a" y="-7.5%" filterUnits="objectBoundingBox">
            <feOffset dy="3" in="SourceAlpha" result="shadowOffsetOuter1"/>
            <feGaussianBlur in="shadowOffsetOuter1" result="shadowBlurOuter1" stdDeviation="3.5"/>
            <feColorMatrix in="shadowBlurOuter1" values="0 0 0 0 0.870588235 0 0 0 0 0.247058824 0 0 0 0 0.0941176471 0 0 0 0.25 0"/>
        </filter>
    </defs>
    <g fill="none" fill-rule="nonzero" transform="translate(-68 -51)">
        <use fill="#000" filter="url(#a)" xlink:href="#b"/>
        <use fill="#DE3F18" xlink:href="#b"/>
    </g>
</svg>
