<svg xmlns="http://www.w3.org/2000/svg" width="20" height="18" viewBox="0 0 20 18">
    <path fill="#FFF" fill-rule="evenodd" d="M18.522 18H1.48C.662 18 0 17.422 0 16.709V1.29C0 .578.662 0 1.479 0h17.043C19.338 0 20 .578 20 1.29V16.71c0 .713-.662 1.291-1.478 1.291zM3.466 15.035h2.945V6.908H3.466v8.127zM4.959 2.99c-1.008 0-1.666.606-1.666 1.404 0 .78.639 1.405 1.627 1.405h.019c1.027 0 1.666-.626 1.666-1.405-.018-.798-.64-1.404-1.646-1.404zm12.073 7.385c0-2.497-1.454-3.659-3.391-3.659-1.564 0-2.263.788-2.654 1.343V6.908H8.04c.04.763 0 8.127 0 8.127h2.946v-4.538c0-.242.019-.486.097-.659.212-.485.698-.987 1.51-.987 1.067 0 1.492.745 1.492 1.837v4.347h2.946v-4.66zm-6.065-2.29l.02-.026v.027h-.02z"/>
</svg>
