<svg xmlns="http://www.w3.org/2000/svg" width="21" height="16" viewBox="0 0 21 16">
    <path fill="#FFF" fill-rule="evenodd" d="M21 1.895a9.056 9.056 0 0 1-2.474.635c.89-.5 1.572-1.292 1.894-2.234a9.044 9.044 0 0 1-2.737.98A4.434 4.434 0 0 0 14.54 0C12.16 0 10.23 1.809 10.23 4.039c0 .317.038.626.112.921-3.58-.169-6.755-1.777-8.88-4.22a3.83 3.83 0 0 0-.583 2.031c0 1.4.76 2.638 1.916 3.362a4.524 4.524 0 0 1-1.951-.506v.052c0 1.957 1.484 3.589 3.455 3.96a4.692 4.692 0 0 1-1.945.07c.548 1.603 2.14 2.772 4.025 2.805a9.017 9.017 0 0 1-5.351 1.728A9.41 9.41 0 0 1 0 14.186a12.801 12.801 0 0 0 6.604 1.815c7.925 0 12.259-6.156 12.259-11.493 0-.176-.005-.349-.013-.523A8.501 8.501 0 0 0 21 1.895z"/>
</svg>
