<svg xmlns="http://www.w3.org/2000/svg" width="143" height="47" viewBox="0 0 143 47">
    <g fill="none" fill-rule="evenodd">
        <path fill="#FFF" fill-rule="nonzero" d="M58.488 19V2.2h4.656v12.72h8.136V19H58.488zm29.728-2.208c-1.728 1.696-3.88 2.544-6.456 2.544-2.576 0-4.724-.844-6.444-2.532-1.72-1.688-2.58-3.756-2.58-6.204 0-2.432.868-4.496 2.604-6.192 1.736-1.696 3.892-2.544 6.468-2.544s4.724.844 6.444 2.532c1.72 1.688 2.58 3.756 2.58 6.204 0 2.432-.872 4.496-2.616 6.192zm-6.408-1.656c1.264 0 2.292-.44 3.084-1.32.792-.88 1.188-1.952 1.188-3.216 0-1.248-.408-2.316-1.224-3.204-.816-.888-1.848-1.332-3.096-1.332s-2.268.44-3.06 1.32c-.792.88-1.188 1.952-1.188 3.216 0 1.248.404 2.316 1.212 3.204.808.888 1.836 1.332 3.084 1.332zm21.016 4.2c-2.64 0-4.824-.82-6.552-2.46-1.728-1.64-2.592-3.732-2.592-6.276 0-2.464.86-4.536 2.58-6.216 1.72-1.68 3.876-2.52 6.468-2.52 2.656 0 4.928.816 6.816 2.448L106.808 7.6c-1.264-1.056-2.616-1.584-4.056-1.584-1.216 0-2.236.448-3.06 1.344-.824.896-1.236 2-1.236 3.312 0 1.36.428 2.476 1.284 3.348.856.872 1.948 1.308 3.276 1.308 1.088 0 1.984-.232 2.688-.696v-2.04h-3.312V9.184h7.728v7.56c-2.096 1.728-4.528 2.592-7.296 2.592zm25.792-2.544c-1.728 1.696-3.88 2.544-6.456 2.544-2.576 0-4.724-.844-6.444-2.532-1.72-1.688-2.58-3.756-2.58-6.204 0-2.432.868-4.496 2.604-6.192 1.736-1.696 3.892-2.544 6.468-2.544s4.724.844 6.444 2.532c1.72 1.688 2.58 3.756 2.58 6.204 0 2.432-.872 4.496-2.616 6.192zm-6.408-1.656c1.264 0 2.292-.44 3.084-1.32.792-.88 1.188-1.952 1.188-3.216 0-1.248-.408-2.316-1.224-3.204-.816-.888-1.848-1.332-3.096-1.332s-2.268.44-3.06 1.32c-.792.88-1.188 1.952-1.188 3.216 0 1.248.404 2.316 1.212 3.204.808.888 1.836 1.332 3.084 1.332zM58.488 41V24.2h7.2c2.144 0 3.844.524 5.1 1.572 1.256 1.048 1.884 2.508 1.884 4.38 0 1.92-.664 3.408-1.992 4.464-1.328 1.056-3.072 1.584-5.232 1.584h-2.304V41h-4.656zm4.656-8.448h2.208c.832 0 1.484-.2 1.956-.6.472-.4.708-.944.708-1.632 0-.72-.236-1.268-.708-1.644-.472-.376-1.132-.564-1.98-.564h-2.184v4.44zM75.64 41V24.2h4.656v12.72h8.136V41H75.64zm14.44 0l7.152-16.92h4.488L108.872 41h-4.992l-1.224-3h-6.48l-1.2 3H90.08zm7.464-6.624h3.768L99.44 29.6l-1.896 4.776zm20.968 6.96c-2.432 0-4.484-.828-6.156-2.484-1.672-1.656-2.508-3.74-2.508-6.252 0-2.464.844-4.536 2.532-6.216 1.688-1.68 3.796-2.52 6.324-2.52 2.992 0 5.344 1.184 7.056 3.552l-3.408 2.64c-1.04-1.296-2.272-1.944-3.696-1.944-1.168 0-2.128.432-2.88 1.296-.752.864-1.128 1.928-1.128 3.192 0 1.28.376 2.348 1.128 3.204.752.856 1.712 1.284 2.88 1.284.816 0 1.512-.172 2.088-.516.576-.344 1.144-.852 1.704-1.524l3.504 2.496c-.88 1.2-1.904 2.132-3.072 2.796-1.168.664-2.624.996-4.368.996zM128.944 41V24.2h13.512v3.96h-8.904v2.544h8.064v3.672h-8.064v2.664h9.024V41h-13.632z"/>
        <circle cx="23.077" cy="23.077" r="23.077" fill="#FFF" fill-rule="nonzero"/>
        <path fill="#263C75" d="M23 29l-7.053 3.708 1.347-7.854-5.707-5.562 7.886-1.146L23 11l3.527 7.146 7.886 1.146-5.707 5.562 1.347 7.854z"/>
    </g>
</svg>
